<svg  xmlns="http://www.w3.org/2000/svg"  width="264" height="274" viewBox="0 0 2640 2740"><g id="l4ewyBG2ef9yNCuat7yUJus" fill="rgb(255,120,187)" style="transform: none;"><g><path id="pRY9i5kzF" d="M1300 2675 c-7 -8 -18 -15 -25 -15 -12 0 -45 -31 -45 -43 0 -4 18 -7 40 -7 28 0 40 -4 40 -14 0 -8 -4 -17 -10 -21 -5 -3 -7 -12 -4 -20 6 -15 -10 -49 -35 -76 -9 -10 -24 -35 -35 -56 -10 -21 -21 -44 -25 -52 -4 -8 -16 -19 -27 -25 -10 -6 -38 -26 -61 -43 -44 -35 -65 -40 -81 -20 -12 16 -21 77 -10 77 4 0 8 9 8 19 0 10 17 33 37 49 l38 30 -35 15 c-19 9 -29 16 -22 16 7 1 22 10 34 21 12 11 28 20 35 20 7 0 18 10 24 22 13 24 -48 -17 -241 -163 -127 -96 -329 -291 -461 -444 -88 -103 -159 -197 -159 -210 0 -5 -10 -22 -23 -39 -56 -74 -177 -315 -177 -350 0 -9 -11 -48 -24 -88 -56 -168 -61 -402 -11 -558 73 -232 199 -389 390 -483 39 -19 86 -38 105 -42 19 -4 41 -12 48 -18 9 -7 66 -11 145 -11 132 -1 190 11 287 56 107 51 215 151 276 256 22 38 30 37 52 -3 9 -17 19 -32 22 -35 3 -3 20 -24 37 -48 33 -46 131 -129 178 -151 17 -7 41 -19 55 -26 14 -7 41 -16 60 -20 19 -4 41 -12 49 -19 19 -15 270 -15 302 1 13 6 51 19 84 28 184 51 330 198 419 421 26 64 51 139 56 165 11 57 14 352 4 389 -3 14 -8 40 -11 58 -3 18 -9 35 -14 38 -5 3 -9 17 -9 32 0 15 -6 38 -13 52 -7 14 -21 46 -31 73 -10 26 -22 47 -27 47 -5 0 -3 -11 6 -24 13 -20 13 -25 1 -35 -8 -6 -20 -10 -27 -9 -7 2 -19 -14 -26 -37 -8 -22 -21 -43 -29 -48 -21 -12 -17 -26 6 -20 28 7 48 -12 61 -61 6 -22 20 -58 31 -79 11 -22 18 -52 17 -72 -2 -19 0 -37 4 -41 4 -4 7 -31 7 -61 0 -57 -21 -91 -53 -85 -24 5 -26 -7 -29 -154 -3 -129 -3 -131 -42 -208 -47 -97 -99 -149 -185 -189 -60 -27 -78 -31 -196 -35 -120 -4 -136 -2 -202 21 -89 30 -189 86 -224 124 -44 47 -78 149 -84 249 -3 65 -9 92 -20 100 -12 9 -15 25 -11 73 3 34 10 70 16 81 5 10 10 28 10 39 0 12 4 21 9 21 10 0 15 27 30 175 19 172 31 236 55 299 13 33 34 104 46 156 12 52 32 113 45 136 30 51 99 114 125 114 11 0 20 4 20 9 0 19 -90 129 -148 179 -62 55 -208 216 -229 255 -7 12 -13 38 -13 57 0 19 -7 64 -15 99 -9 35 -13 66 -11 69 3 3 16 -3 28 -11 13 -9 59 -41 102 -71 88 -61 136 -100 199 -162 23 -22 61 -53 85 -69 24 -16 65 -54 92 -85 26 -30 61 -62 77 -70 54 -28 98 -75 203 -216 14 -19 36 -42 50 -51 19 -13 16 -6 -15 32 -22 28 -44 56 -50 64 -22 29 -122 136 -154 165 -19 17 -49 46 -65 65 -17 18 -58 54 -91 79 -33 26 -73 60 -90 77 -16 17 -52 49 -80 72 -27 23 -79 66 -115 95 -36 30 -103 80 -150 111 -47 30 -99 67 -116 81 -37 30 -47 32 -64 11z m-324 -282 c-15 -12 -35 -23 -44 -23 -13 1 -8 8 16 31 18 16 38 26 44 23 7 -5 2 -16 -16 -31z"></path><path id="pPerJ9r9V" d="M2365 1710 c18 -36 55 -78 55 -62 0 5 -7 15 -15 22 -8 7 -15 18 -15 25 0 6 -10 20 -21 31 l-22 19 18 -35z"></path><path id="pm6a1zrdc" d="M2396 1308 c9 -57 14 -61 14 -10 0 22 -5 44 -10 47 -7 4 -8 -8 -4 -37z"></path></g></g><g id="lup9tKejkq1nCI3p4uMsQz" fill="rgb(201,41,107)" style="transform: none;"><g><path id="piX50KIc8" d="M2293 1683 c-16 -6 -17 -33 -2 -33 6 0 9 -8 7 -17 -3 -10 10 -47 28 -83 17 -36 39 -92 49 -125 9 -33 21 -67 25 -75 4 -8 5 -95 2 -193 l-5 -178 44 -44 c45 -46 71 -54 102 -31 20 16 25 120 5 132 -8 5 -9 2 -5 -11 4 -9 2 -24 -4 -31 -13 -16 -33 -19 -24 -3 4 5 4 22 0 36 -5 23 -7 24 -18 9 -12 -16 -67 -30 -67 -18 0 4 12 16 27 28 17 14 24 26 20 37 -9 25 -24 21 -31 -8 -4 -14 -11 -25 -16 -25 -12 0 -13 17 -2 24 7 4 8 42 2 71 -6 25 2 22 35 -13 23 -25 35 -32 35 -21 0 9 -9 24 -20 34 -24 22 -29 65 -5 45 8 -7 15 -18 15 -25 0 -7 7 -18 15 -25 17 -14 20 -50 5 -50 -5 0 -10 -5 -10 -11 0 -5 5 -7 10 -4 6 3 10 1 10 -5 0 -6 4 -9 9 -6 5 4 12 0 14 -6 3 -7 6 3 6 22 1 19 -7 49 -17 65 -10 17 -22 46 -25 64 -11 55 -35 84 -63 78 -26 -5 -33 10 -9 19 17 7 40 77 37 113 -2 30 -54 118 -110 183 -23 27 -40 53 -37 58 7 11 -17 28 -32 23z m247 -768 c-7 -8 -16 -15 -21 -15 -13 0 -65 49 -52 50 6 0 15 -4 18 -10 10 -16 45 -11 53 8 6 16 7 16 10 -1 2 -10 -2 -24 -8 -32z"></path><path id="pa0942xBi" d="M1832 1593 c10 -3 15 -10 11 -19 -4 -11 7 -14 56 -14 51 0 61 3 61 18 0 14 -11 17 -73 18 -39 0 -64 -1 -55 -3z"></path><path id="p9mmX5ZGn" d="M2036 1571 c-3 -5 2 -15 11 -22 12 -10 14 -10 9 -1 -4 6 -2 12 3 12 6 0 11 5 11 10 0 12 -27 13 -34 1z"></path><path id="pWvWIz3Kx" d="M2450 1573 c0 -16 41 -85 47 -79 3 2 -7 24 -21 48 -14 24 -26 38 -26 31z"></path><path id="pjwQj32C7" d="M2102 1480 c-50 -56 -93 -79 -154 -81 -23 -1 -33 -4 -21 -6 12 -2 27 -11 33 -19 21 -24 -23 -17 -64 11 -83 56 -126 11 -101 -106 26 -125 38 -207 31 -221 -19 -39 -44 -72 -56 -76 -11 -4 -9 1 4 16 17 20 17 22 2 28 -9 3 -23 1 -30 -5 -9 -7 -40 -11 -77 -9 l-62 3 -2 -37 c-3 -42 -2 -43 27 -27 34 18 11 -7 -27 -30 -19 -11 -35 -16 -35 -11 0 6 -4 10 -8 10 -11 0 -17 -69 -15 -176 2 -128 29 -177 140 -255 29 -20 54 -29 81 -29 23 0 42 -5 44 -12 7 -19 187 -37 283 -28 51 4 95 21 95 36 0 8 9 23 20 34 11 11 15 20 10 20 -6 0 2 17 18 38 39 50 71 143 77 222 31 468 32 444 -29 590 -34 80 -104 171 -131 169 -5 0 -29 -22 -53 -49z m-9 -357 c3 -5 -17 -9 -45 -10 -30 -2 -47 1 -43 7 7 12 82 14 88 3z m10 -31 c7 -5 27 -8 45 -6 l33 4 -26 -24 c-31 -29 -88 -40 -147 -31 l-43 6 30 -19 c40 -25 93 -34 132 -23 25 7 31 6 27 -4 -7 -18 -88 -39 -120 -31 -15 4 -42 17 -58 29 -17 12 -34 23 -38 23 -5 1 -9 2 -10 4 -13 10 -45 6 -55 -7 -16 -20 -16 -13 -3 21 5 15 17 26 28 26 10 0 32 10 49 23 26 19 43 23 88 21 31 -1 61 -7 68 -12z m-264 -126 c-9 -8 -10 -7 -5 7 3 10 7 24 7 30 1 7 3 4 6 -7 3 -10 -1 -23 -8 -30z m-114 4 c-28 -12 -37 -12 -30 0 3 6 16 10 28 9 21 0 21 -1 2 -9z m165 -25 c7 -8 8 -15 2 -15 -5 0 -15 7 -22 15 -7 8 -8 15 -2 15 5 0 15 -7 22 -15z m139 -41 c10 -9 -56 -3 -69 7 -11 7 -4 8 25 3 22 -4 42 -8 44 -10z m-299 -4 c0 -5 -6 -10 -12 -10 -7 0 -24 -3 -38 -6 -17 -5 -22 -3 -15 4 9 9 30 17 58 21 4 0 7 -3 7 -9z"></path><path id="pOa8Lnm7P" d="M1651 1466 c-5 -12 -17 -60 -27 -105 -10 -44 -20 -81 -23 -81 -9 0 -1 -194 9 -203 4 -5 18 5 31 22 26 35 83 52 102 31 9 -10 9 -11 0 -6 -7 4 -24 4 -39 0 -26 -7 -27 -8 -7 -15 12 -4 40 -2 64 6 33 9 43 17 42 31 -1 11 -4 38 -6 61 -2 23 -23 78 -46 124 -22 45 -41 91 -41 101 0 52 -43 77 -59 34z"></path></g></g><g id="l2NzgcN5QysdztR8ZkNTWpd" fill="rgb(255,255,255)" style="transform: none;"><g><path id="pnZMvMuCB" d="M1454 2539 c3 -13 11 -55 17 -94 6 -38 13 -80 15 -92 6 -31 89 -129 224 -263 64 -63 125 -130 135 -147 14 -24 26 -33 46 -33 22 0 29 7 44 48 10 26 22 52 27 59 12 15 1 53 -15 53 -6 0 -34 25 -63 55 l-51 56 22 -78 c12 -43 25 -103 29 -133 l7 -55 -41 64 c-33 51 -52 99 -87 224 -42 152 -60 197 -74 197 -7 0 27 -125 71 -262 15 -49 24 -88 20 -88 -22 0 -250 249 -250 274 0 3 8 3 18 0 15 -5 15 -4 1 8 -26 21 -39 54 -58 140 -10 46 -23 84 -31 86 -9 3 -11 -2 -6 -19z"></path><path id="p1E2cXmYOK" d="M1811 2260 c0 -14 4 -32 9 -40 8 -12 10 -12 9 5 0 11 -4 29 -9 40 -8 18 -9 18 -9 -5z"></path><path id="p19RjkY7CL" d="M1976 2123 c-16 -17 -2 -66 34 -119 40 -59 124 -153 170 -189 14 -11 32 -29 40 -40 8 -11 -7 -1 -33 22 -75 64 -232 111 -321 94 -90 -17 -152 -101 -186 -251 -12 -52 -30 -116 -41 -142 -23 -56 -49 -164 -48 -198 0 -14 8 9 18 50 18 80 61 190 74 190 4 0 12 -12 19 -27 6 -16 16 -41 24 -58 7 -16 15 -38 18 -48 5 -17 8 -16 45 3 50 25 73 25 94 2 14 -16 26 -17 76 -11 66 7 99 27 153 89 20 22 40 40 45 40 26 0 96 -92 129 -170 61 -146 60 -122 29 -590 -6 -79 -38 -172 -77 -222 -16 -21 -24 -38 -18 -38 5 0 1 -9 -10 -20 -11 -11 -20 -26 -20 -34 0 -25 -74 -40 -180 -38 -62 2 -232 18 -212 20 6 1 12 7 12 12 0 6 -19 10 -41 10 -32 0 -53 9 -90 35 -27 19 -53 35 -57 35 -10 0 -62 81 -62 96 0 7 -4 15 -10 19 -11 7 13 -76 40 -138 26 -59 72 -98 173 -146 116 -56 158 -64 300 -59 109 5 129 8 188 35 86 40 138 92 185 189 36 72 39 85 41 173 1 53 3 117 4 144 3 43 -1 51 -38 90 l-41 42 -5 205 c-5 223 -10 247 -75 377 -18 34 -35 80 -38 104 -6 37 -5 41 10 32 25 -14 124 -141 159 -205 18 -32 38 -58 45 -58 18 0 15 10 -18 60 -16 25 -30 57 -30 72 0 15 -15 46 -34 71 -19 25 -42 59 -50 76 -25 47 -62 99 -93 129 -15 15 -46 52 -68 82 -81 109 -137 162 -104 98 l12 -23 -26 24 c-15 13 -29 32 -32 42 -7 21 -70 71 -79 62z m75 -539 c55 -18 54 -29 -5 -49 -46 -16 -269 -14 -289 3 -11 10 -16 44 -8 60 0 1 58 2 127 2 89 0 140 -5 175 -16z"></path><path id="p11P5AZIn7" d="M2500 1410 c-8 -5 -11 -12 -7 -16 4 -4 15 0 24 9 18 18 8 23 -17 7z"></path><path id="piMgGZey2" d="M1680 1107 c-40 -14 -44 -26 -12 -38 14 -5 22 -5 22 2 0 6 7 17 15 25 11 12 19 13 36 4 11 -7 23 -9 26 -6 5 4 -42 28 -50 25 -1 0 -18 -5 -37 -12z"></path><path id="p10sOW8mW6" d="M1566 1084 c-4 -14 -5 -29 -2 -31 3 -3 8 7 12 21 3 15 4 29 1 32 -2 3 -8 -7 -11 -22z"></path><path id="pKPqThGN2" d="M2025 1102 c-55 -7 -72 -36 -29 -46 20 -5 30 -2 41 14 17 25 49 26 62 3 5 -10 13 -14 17 -10 10 10 -15 34 -41 39 -11 3 -33 3 -50 0z"></path><path id="p1DTLYt5Tv" d="M1536 878 c-3 -13 -5 -39 -5 -58 1 -28 3 -25 10 19 9 55 6 80 -5 39z"></path></g></g><g id="l4Qb4xNfOQwlnZzSuS1GigD" fill="rgb(27,19,15)" style="transform: none;"><g><path id="p1HQT2ymwJ" d="M1118 2532 c-16 -10 -28 -23 -28 -29 0 -7 -7 -13 -15 -13 -8 0 -15 -4 -15 -10 0 -5 9 -10 20 -10 11 0 20 6 20 14 0 8 15 26 33 40 36 29 27 33 -15 8z"></path><path id="p12OIVzhQ6" d="M1484 2507 c12 -79 35 -146 59 -168 17 -17 18 -21 5 -16 -10 4 -18 4 -18 1 0 -24 228 -274 250 -274 4 0 -10 55 -30 123 -21 67 -46 148 -54 179 -15 54 -20 60 -87 105 -39 26 -85 59 -102 73 l-30 24 7 -47z"></path><path id="pg6UuePcG" d="M1724 2343 c3 -10 23 -81 45 -159 30 -106 49 -156 81 -205 l41 -64 -7 55 c-4 30 -17 90 -29 133 l-22 78 51 -56 c29 -30 57 -55 63 -55 16 0 27 -38 15 -53 -5 -7 -17 -33 -27 -59 -14 -39 -22 -48 -41 -48 -49 0 -22 -15 29 -16 81 -2 208 -49 264 -97 26 -23 41 -33 33 -22 -8 11 -26 29 -40 40 -47 37 -130 130 -171 190 -33 49 -40 66 -36 95 3 24 -2 44 -16 63 -21 30 -113 107 -128 107 -5 0 -6 -15 -3 -32 4 -25 3 -29 -5 -18 -6 8 -11 26 -11 41 0 14 -14 40 -34 62 -36 39 -61 49 -52 20z"></path><path id="pojGTdKGd" d="M2059 2052 c5 -9 19 -26 31 -37 l22 -20 -18 38 c-10 20 -24 37 -31 37 -10 0 -11 -5 -4 -18z"></path><path id="pAVhWtP7v" d="M2310 1665 c19 -19 36 -35 39 -35 3 0 -10 16 -29 35 -19 19 -36 35 -39 35 -3 0 10 -16 29 -35z"></path><path id="pmCr39zAM" d="M1749 1598 c-7 -14 -4 -50 5 -57 19 -15 86 -19 86 -4 0 7 -9 13 -19 13 -26 0 -37 18 -17 26 28 11 17 24 -19 24 -19 0 -36 -1 -36 -2z"></path><path id="pnhpplu45" d="M1664 1511 c-10 -25 -9 -28 7 -24 13 4 23 -6 38 -34 12 -22 20 -31 21 -20 0 9 -4 25 -9 35 -5 9 -14 29 -20 45 -14 35 -24 34 -37 -2z"></path><path id="pydIAvGIF" d="M1625 1416 c-9 -31 -15 -62 -13 -68 3 -7 12 17 21 52 20 80 14 92 -8 16z"></path><path id="p19N47GYci" d="M1780 1405 c-18 -11 -28 -11 -40 -2 -12 9 -13 9 -3 -3 14 -15 53 -21 53 -8 0 5 10 13 23 18 12 5 15 9 7 8 -8 0 -26 -6 -40 -13z"></path><path id="pFUlaAx5D" d="M1589 1248 c-2 -58 -16 -185 -23 -203 -7 -18 -7 -19 4 -2 11 17 14 17 35 3 32 -21 33 -20 27 9 -2 14 -8 22 -13 20 -20 -13 -31 39 -24 116 4 43 4 79 1 79 -3 0 -6 -10 -7 -22z"></path><path id="p8KKQL58s" d="M1526 915 c-14 -84 -15 -94 -6 -100 6 -3 10 5 10 19 0 13 4 35 8 48 5 13 6 34 2 48 -6 23 -8 21 -14 -15z"></path></g></g><g id="l1kTLeZdP48tPyhP4AZz7wM" fill="rgb(95,0,35)" style="transform: none;"><g><path id="p15niZmaFf" d="M1134 2451 c3 -5 16 -11 28 -14 22 -6 22 -5 4 8 -22 17 -40 20 -32 6z"></path><path id="pz1qCWEpq" d="M2330 1637 c0 -2 14 -16 32 -33 31 -29 31 -29 12 -2 -16 23 -44 45 -44 35z"></path><path id="pmLuzA3cc" d="M1883 1593 c15 -2 37 -2 50 0 12 2 0 4 -28 4 -27 0 -38 -2 -22 -4z"></path><path id="p10JQMYkE0" d="M2066 1563 c-4 -5 -56 -8 -114 -8 -95 0 -107 -2 -110 -18 -3 -17 3 -18 93 -14 53 2 101 9 107 15 6 6 17 8 26 5 9 -4 13 -2 9 4 -4 6 -1 14 5 16 7 3 8 6 2 6 -6 1 -14 -2 -18 -6z"></path><path id="p13OQ6FIsX" d="M2430 1511 c36 -58 45 -80 41 -103 0 -5 4 -8 9 -8 5 0 10 5 10 11 0 5 5 7 10 4 6 -3 10 -1 10 4 0 6 -6 11 -13 11 -6 0 -22 19 -35 43 -12 23 -34 56 -47 72 -14 17 -7 1 15 -34z"></path><path id="pnJz4V0f0" d="M2450 1544 c0 -11 42 -75 47 -71 2 3 -6 21 -18 41 -20 34 -29 44 -29 30z"></path><path id="pHnzbQ2Nt" d="M1711 1429 c-1 -9 18 -53 40 -98 23 -46 44 -101 46 -124 2 -23 5 -51 6 -62 1 -14 -5 -21 -21 -23 -16 -2 -22 -8 -18 -18 4 -11 -1 -13 -19 -10 -14 3 -27 0 -31 -5 -3 -5 -10 -7 -15 -4 -5 3 -6 -1 -3 -10 5 -11 1 -14 -12 -12 -29 4 -45 17 -38 29 5 7 2 8 -5 3 -8 -4 -11 -20 -9 -36 5 -34 5 -34 -27 -13 -22 14 -24 14 -35 -6 -6 -11 -8 -25 -5 -30 3 -6 0 -10 -8 -10 -18 0 -26 -36 -16 -70 6 -21 7 -22 9 -5 1 19 2 19 12 -2 l10 -21 34 20 c37 22 60 47 26 29 -29 -16 -30 -15 -27 27 l2 37 62 -3 c37 -2 68 2 77 9 7 6 21 8 30 5 15 -6 15 -8 -2 -28 -13 -15 -15 -20 -4 -16 12 4 37 37 56 76 7 14 -5 96 -31 221 -14 65 -8 107 18 123 7 4 3 6 -10 6 -14 -2 -19 -7 -15 -17 4 -10 1 -13 -10 -8 -12 4 -15 0 -12 -16 l5 -22 -10 21 c-5 12 -14 25 -19 28 -6 3 -8 16 -5 29 3 16 2 18 -5 8 -8 -11 -10 -11 -15 0 -4 11 -6 10 -6 -2z"></path><path id="pbAg0TU2J" d="M1825 1420 c3 -5 12 -10 20 -10 8 0 17 5 20 10 4 6 -5 10 -20 10 -15 0 -24 -4 -20 -10z"></path><path id="p12R5dKEyx" d="M1870 1405 c0 -10 65 -45 84 -45 15 0 16 3 6 15 -7 8 -21 15 -32 15 -11 0 -28 5 -39 10 -10 6 -19 8 -19 5z"></path><path id="pV7KbEy4p" d="M1606 1325 c-3 -9 -6 -24 -5 -33 0 -9 5 -4 10 12 9 32 6 48 -5 21z"></path><path id="pDAYVAAaN" d="M2463 1181 c-1 -10 12 -31 28 -47 16 -15 29 -23 29 -17 0 6 -7 16 -15 23 -8 7 -15 18 -15 25 0 7 -6 17 -13 23 -10 8 -13 6 -14 -7z"></path><path id="pZweGbZLu" d="M1593 1145 c0 -27 2 -38 4 -22 2 15 2 37 0 50 -2 12 -4 0 -4 -28z"></path><path id="pHK4aiV9G" d="M2427 1164 c-3 -3 0 -18 6 -35 9 -22 9 -34 -1 -49 -8 -14 -9 -21 0 -26 7 -4 8 -3 4 4 -4 7 -2 12 3 12 6 0 11 7 11 15 0 20 19 19 27 -2 4 -11 -3 -23 -20 -37 -34 -27 -34 -34 0 -30 33 3 55 31 47 58 -8 24 -70 97 -77 90z"></path><path id="p1AehFpwwf" d="M1672 1129 c-13 -5 -21 -13 -18 -18 4 -5 19 -3 36 6 17 8 38 12 46 9 8 -3 12 -2 9 4 -8 12 -42 12 -73 -1z"></path><path id="pzJ5iVQfj" d="M1965 1095 c-27 -19 -58 -35 -68 -35 -10 0 -22 -12 -27 -26 -13 -34 -13 -41 3 -21 10 13 42 17 55 7 1 -2 5 -3 10 -4 4 0 21 -11 38 -23 16 -12 43 -25 58 -29 32 -8 113 13 120 31 4 10 -2 11 -27 4 -18 -5 -48 -6 -67 -2 -41 7 -105 43 -77 43 9 0 17 5 17 10 0 6 -9 10 -19 10 -11 0 -23 6 -27 13 -4 6 -3 9 1 4 5 -4 18 2 30 13 15 14 38 21 67 23 54 2 54 17 0 17 -25 -1 -53 -12 -87 -35z"></path><path id="p10a5DFkKi" d="M2032 1065 c-12 -14 -22 -27 -22 -30 0 -9 79 -5 85 5 3 5 11 7 18 4 8 -3 25 7 40 20 l27 25 -30 -2 c-24 -2 -29 -6 -24 -20 5 -16 3 -17 -14 -8 -11 6 -22 7 -26 4 -3 -3 -6 1 -6 10 0 25 -23 21 -48 -8z"></path><path id="p1GvVdSeaq" d="M2527 1060 c-9 -25 -14 -80 -6 -80 18 0 27 27 20 60 -5 22 -10 29 -14 20z"></path><path id="pzRn3rqDA" d="M1695 970 c-7 -12 2 -12 30 0 19 8 19 9 -2 9 -12 1 -25 -3 -28 -9z"></path><path id="pb9Hmsi9N" d="M1870 945 c7 -8 17 -15 22 -15 6 0 5 7 -2 15 -7 8 -17 15 -22 15 -6 0 -5 -7 2 -15z"></path><path id="p1DXlMYE3j" d="M2538 948 c-8 -19 -43 -24 -53 -8 -3 6 -12 10 -18 10 -13 -1 39 -50 52 -50 15 0 33 29 29 47 -3 17 -4 17 -10 1z"></path><path id="pwud5Y1zq" d="M1960 911 c8 -6 28 -11 44 -11 39 0 31 6 -19 14 -29 5 -36 4 -25 -3z"></path><path id="pPuwV2sGC" d="M1695 903 c-11 -3 -24 -10 -30 -15 -7 -7 -2 -9 15 -4 14 3 31 6 38 6 6 0 12 5 12 10 0 10 -3 11 -35 3z"></path></g></g><g id="l4BUvu3rVrKHtGnVxxz3XMG" fill="rgb(255,10,126)" style="transform: none;"><g><path id="p10gK9qNOB" d="M1206 2598 c-7 -10 -16 -15 -19 -12 -4 4 -9 -1 -13 -10 -3 -9 -10 -14 -14 -11 -5 3 -12 1 -15 -5 -4 -6 -3 -10 2 -9 4 1 22 0 38 -1 l30 -2 -35 -10 c-44 -12 -71 -36 -68 -59 2 -11 -13 -29 -39 -48 -26 -19 -43 -39 -43 -51 0 -11 -4 -20 -8 -20 -11 0 -2 -61 10 -77 16 -20 37 -15 81 20 23 17 51 37 61 43 11 6 23 17 27 25 4 8 15 31 25 52 11 21 26 46 35 56 25 27 41 61 35 76 -3 8 -1 17 4 20 25 16 8 33 -36 37 -36 2 -49 -1 -58 -14z m-37 -152 c9 -11 6 -12 -14 -8 -14 2 -25 8 -25 13 0 14 26 11 39 -5z"></path><path id="p5bBNwDPx" d="M948 2401 c-24 -23 -29 -30 -16 -31 24 0 74 45 60 54 -6 3 -26 -7 -44 -23z"></path><path id="pIWsGZhXn" d="M1960 1581 c0 -18 25 -31 61 -31 18 0 22 31 5 42 -6 4 -23 8 -38 8 -21 0 -28 -5 -28 -19z"></path><path id="p7yqoHHdZ" d="M1795 1570 c-3 -5 0 -10 9 -10 8 0 22 -3 30 -6 12 -5 15 -2 10 10 -7 18 -39 22 -49 6z"></path></g></g></svg>